<svg xmlns="http://www.w3.org/2000/svg" width="1087.188" height="1011.963" viewBox="0 0 1087.188 1011.963">
  <g id="login-image" transform="translate(-48.221 -34.097)">
    <g id="Group_1" data-name="Group 1" transform="translate(59)">
      <path id="Path_1" data-name="Path 1" d="M503.632,54.763c232.97,160.27,294.948,204.01,294.948,429.759s-69.193,283.931-480.159,388.7S-298.262,720.871-86,395.921,270.663-105.507,503.632,54.763Z" transform="translate(218.882 94.241)" fill="#f3f3f3"/>
      <path id="Path_3" data-name="Path 3" d="M585.651,62.066c261.3,179.763,330.822,228.823,330.822,482.029S838.864,862.56,377.914,980.071-313.775,809.19-75.694,444.718,324.346-117.7,585.651,62.066Z" transform="translate(159.936 39.373)" fill="#f3f3f3" opacity="0.45"/>
      <path id="Path_2" data-name="Path 2" d="M543.423,58.306C790.14,228.033,855.775,274.354,855.775,513.423S782.5,814.108,347.284,925.059-305.788,763.718-81,419.595,296.707-111.421,543.423,58.306Z" transform="translate(190.285 67.622)" fill="#f3f3f3" opacity="0.45"/>
    </g>
    <g id="undraw_online_chat_d7ek" transform="translate(254.764 246.591)">
      <path id="Path_4" data-name="Path 4" d="M573.794,745.807a4.26,4.26,0,0,0-2.512.884c-2.141-5.658-5.455-9.294-9.179-9.294s-7.038,3.636-9.179,9.294a4.26,4.26,0,0,0-2.512-.884c-4.23,0-7.66,7.154-7.66,15.979h38.7C581.454,752.961,578.024,745.807,573.794,745.807Z" transform="translate(-240.957 -187.399)" fill="#333745"/>
      <path id="Path_5" data-name="Path 5" d="M466.794,745.807a4.26,4.26,0,0,0-2.512.884c-2.141-5.658-5.455-9.294-9.179-9.294s-7.038,3.636-9.179,9.294a4.26,4.26,0,0,0-2.512-.884c-4.23,0-7.66,7.154-7.66,15.979h38.7C474.454,752.961,471.024,745.807,466.794,745.807Z" transform="translate(-229.391 -187.399)" fill="#333745"/>
      <path id="Path_6" data-name="Path 6" d="M882.794,745.807a4.261,4.261,0,0,0-2.512.884c-2.141-5.658-5.455-9.294-9.179-9.294s-7.038,3.636-9.179,9.294a4.261,4.261,0,0,0-2.512-.884c-4.23,0-7.659,7.154-7.659,15.979h38.7C890.454,752.961,887.024,745.807,882.794,745.807Z" transform="translate(-274.359 -187.399)" fill="#333745"/>
      <rect id="Rectangle_1" data-name="Rectangle 1" width="518.197" height="1.784" transform="translate(175.705 572.833)" fill="#3f3d56"/>
      <path id="Path_7" data-name="Path 7" d="M569.508,760.48H514.753v-.892c0-12.765,5-22.764,11.376-22.764a6.339,6.339,0,0,1,3,.778c3.2-7.827,7.9-12.289,13-12.289s9.8,4.462,13,12.289a6.339,6.339,0,0,1,3-.778c6.379,0,11.376,10,11.376,22.764ZM516.546,758.7h51.169c-.222-10.978-4.52-20.088-9.583-20.088a4.958,4.958,0,0,0-2.915,1.04l-.945.685-.412-1.091c-2.921-7.718-7.2-12.144-11.73-12.144s-8.808,4.426-11.729,12.144l-.412,1.091-.945-.685a4.957,4.957,0,0,0-2.915-1.04c-5.063,0-9.361,9.109-9.583,20.088Z" transform="translate(-237.931 -186.093)" fill="#3f3d56"/>
      <path id="Path_8" data-name="Path 8" d="M927.508,760.48H872.752v-.892c0-12.765,5-22.764,11.376-22.764a6.339,6.339,0,0,1,3,.778c3.2-7.827,7.9-12.289,13-12.289s9.8,4.462,13,12.289a6.339,6.339,0,0,1,3-.778c6.379,0,11.376,10,11.376,22.764ZM874.545,758.7h51.171c-.222-10.978-4.521-20.088-9.584-20.088a4.955,4.955,0,0,0-2.914,1.04l-.945.685-.413-1.091c-2.92-7.718-7.2-12.144-11.729-12.144s-8.809,4.426-11.73,12.144l-.413,1.091-.945-.685a4.955,4.955,0,0,0-2.914-1.04c-5.063,0-9.362,9.109-9.584,20.088Z" transform="translate(-276.629 -186.093)" fill="#3f3d56"/>
      <path id="Path_9" data-name="Path 9" d="M470.508,760.48H415.753v-.892c0-12.765,5-22.764,11.376-22.764a6.338,6.338,0,0,1,3,.778c3.2-7.827,7.9-12.289,13-12.289s9.8,4.462,13,12.289a6.339,6.339,0,0,1,3-.778c6.379,0,11.376,10,11.376,22.764ZM417.546,758.7h51.169c-.222-10.978-4.52-20.088-9.583-20.088a4.957,4.957,0,0,0-2.915,1.04l-.945.685-.412-1.091c-2.921-7.718-7.2-12.144-11.73-12.144s-8.808,4.426-11.729,12.144l-.412,1.091-.945-.685a4.957,4.957,0,0,0-2.915-1.04c-5.063,0-9.361,9.109-9.583,20.088Z" transform="translate(-227.23 -186.093)" fill="#3f3d56"/>
      <ellipse id="Ellipse_1" data-name="Ellipse 1" cx="0.569" cy="1.518" rx="0.569" ry="1.518" transform="matrix(0.535, -0.845, 0.845, 0.535, 442.04, 251.915)" fill="#3f3d56"/>
      <path id="Path_10" data-name="Path 10" d="M0,0H0A2.656,2.656,0,0,1,2.656,2.656V42.493A2.656,2.656,0,0,1,0,45.148H0V0Z" transform="matrix(0.535, -0.845, 0.845, 0.535, 442.424, 248.116)" fill="#333745"/>
      <path id="Path_11" data-name="Path 11" d="M0,0H1.979A1.815,1.815,0,0,1,3.794,1.815V47.172a2.149,2.149,0,0,1-2.149,2.149H0Z" transform="matrix(0.535, -0.845, 0.845, 0.535, 439.241, 249.244)" fill="#3f3d56"/>
      <rect id="Rectangle_2" data-name="Rectangle 2" width="0.759" height="3.035" transform="matrix(0.535, -0.845, 0.845, 0.535, 444.54, 250.803)" fill="#d0cde1"/>
      <rect id="Rectangle_3" data-name="Rectangle 3" width="0.759" height="3.035" transform="matrix(0.535, -0.845, 0.845, 0.535, 448.066, 253.036)" fill="#d0cde1"/>
      <circle id="Ellipse_2" data-name="Ellipse 2" cx="23.922" cy="23.922" r="23.922" transform="translate(475.343 126.673)" fill="#ffb8b8"/>
      <path id="Path_12" data-name="Path 12" d="M765.4,307.391s11.669,18.379,8.752,23.63-11.961,19.546-11.961,19.546,40.258-29.756,35.007-36.174c0,0-11.961-10.211-12.544-16.629Z" transform="translate(-264.678 -139.877)" fill="#ffb8b8"/>
      <path id="Path_13" data-name="Path 13" d="M582.342,581.289l1.167,18.379,18.671-3.209-1.167-17.8Z" transform="translate(-62.948 -62.551)" fill="#ffb8b8"/>
      <path id="Path_14" data-name="Path 14" d="M488.7,593.074l-3.5,11.669,20.713,3.792,2.917-10.794Z" transform="translate(-52.447 -64.108)" fill="#ffb8b8"/>
      <path id="Path_15" data-name="Path 15" d="M777.871,424.426l1.9,12.982s23.922,47.552-2.042,70.89l-35.007,86.352s-3.792,44.926-14.878,60.679l-10.21,35.882-30.34-7.877L711.8,605.443S711.5,572.769,715,565.476l15.462-69.431,2.771-74.245S774.079,418.883,777.871,424.426Z" transform="translate(-256.581 -153.201)" fill="#2f2e41"/>
      <path id="Path_16" data-name="Path 16" d="M780.952,515.584l13.128,88.685s7,34.132,7.585,47.26,2.917,30.048,2.917,30.048l-23.63,3.792L757.613,571.012Z" transform="translate(-264.183 -163.422)" fill="#2f2e41"/>
      <path id="Path_17" data-name="Path 17" d="M804.562,708.43,785.891,709.6s-6.951-7.877-6.539-3.792-3.964,21.3-3.964,21.3L760.8,742.271s-28.881,0-24.505,14,38.508,2.334,38.508,2.334l13.128-4.376v5.835s22.463,3.209,23.046-2.626,0-13.128-.875-13.711S804.562,708.43,804.562,708.43Z" transform="translate(-261.83 -183.857)" fill="#2f2e41"/>
      <path id="Path_18" data-name="Path 18" d="M706.29,724.057s-13.346-1.068-15.214-2.669-4.8-8.274-8.808-4-18.417,18.15-18.417,18.15l-13.88,6.673s-18.15-4.8-24.289,6.406,30.161,22.955,39.5,19.218l11.744-2.4-.534,5.605s16.549,3.737,18.951-1.068,4.271-10.41,3.2-12.011S706.29,724.057,706.29,724.057Z" transform="translate(-249.847 -185.084)" fill="#2f2e41"/>
      <path id="Path_19" data-name="Path 19" d="M816.8,345.981,796.133,391.7l-8.974,19.849-3.326,7.36-48.135-.583,4.959-33.549c-7-18.087,9.627-25.38,9.627-25.38l14-14.922v2.378S778,330.519,784.125,321.184s14.586-5.835,14.586-5.835C813.3,313.891,816.8,345.981,816.8,345.981Z" transform="translate(-261.814 -141.708)" fill="#575a89"/>
      <path id="Path_20" data-name="Path 20" d="M801.754,393.981l-8.974,19.849c-2.882-5.391-5.076-11.5-5.076-15.1,0-9.919,9.919-4.668,9.919-4.668s-8.023-43.905-8.023-57.033C789.6,328.307,796.871,367,801.754,393.981Z" transform="translate(-267.435 -143.985)" opacity="0.2"/>
      <path id="Path_21" data-name="Path 21" d="M785.96,404.615l-43.467-.875s-31.8,2.626-27.131,15.462,30.048,0,30.048,0l50.761,7.877Z" transform="translate(-259.565 -151.332)" fill="#ffb8b8"/>
      <path id="Path_22" data-name="Path 22" d="M801.893,318.04s-15.17,1.167-15.17,14.295,13.711,59.8,13.711,59.8-9.919-5.251-9.919,4.668,16.629,38.8,18.379,19.546c0,0,25.089,12.253,23.63-10.794s-17.212-71.765-17.212-71.765S813.562,317.165,801.893,318.04Z" transform="translate(-267.329 -142.065)" fill="#575a89"/>
      <path id="Path_23" data-name="Path 23" d="M761.882,282.42c-1.675-1.621-1.644-4.355-2.994-6.256-2.12-2.984-6.534-2.784-10.158-2.269a28,28,0,0,0-7.089,1.647,6.985,6.985,0,0,0-4.1,4.7c-.284,1.176-.91-2.16-1.547-6.48A21.043,21.043,0,0,1,747.509,251.8l.141-.069a39.9,39.9,0,0,1,12.925-4.246c4.531-.494,9.366.4,12.919,3.255,1.624,1.3,2.945,2.979,4.687,4.122,3.059,2.009,6.934,2.106,10.569,2.53a29.374,29.374,0,0,1,11.782,3.614,15.921,15.921,0,0,1,7.477,9.509c1.151,4.689-.728,10.232-5.338,12.267a5.556,5.556,0,0,0-2.084,1.529c-3.786,4.628,2.326,7.16,3.212,11.189.74,3.361-2.493,6.4-5.808,7.33a13.852,13.852,0,0,1-15.9-7.6,28.876,28.876,0,0,1-1.705-8.409c-.354-3.268-8.925-9.187-3.139-4.735a8.081,8.081,0,0,1,2.567,3.246c1.76,4.214-1.893,6.606-3.853,9.614a10.7,10.7,0,0,0-.061,11.316,12.339,12.339,0,0,1-5.671-14.685c.526-1.43,1.322-2.752,1.8-4.2.745-2.257.087-6.644-3.245-5.754C766.407,282.266,764.376,284.834,761.882,282.42Z" transform="translate(-261.821 -134.428)" fill="#2f2e41"/>
      <circle id="Ellipse_3" data-name="Ellipse 3" cx="10.703" cy="10.703" r="10.703" transform="translate(684.303 433.821)" fill="#d0cde1"/>
      <circle id="Ellipse_4" data-name="Ellipse 4" cx="17.838" cy="17.838" r="17.838" transform="translate(650.41 461.47)" fill="#333745"/>
      <rect id="Rectangle_4" data-name="Rectangle 4" width="1.784" height="82.947" transform="translate(672.175 490.011)" fill="#3f3d56"/>
      <path id="Path_24" data-name="Path 24" d="M957.349,667.6a18.73,18.73,0,1,1,18.73-18.73,18.73,18.73,0,0,1-18.73,18.73Zm0-35.676A16.946,16.946,0,1,0,974.3,648.87,16.946,16.946,0,0,0,957.349,631.924Z" transform="translate(-283.749 -175.805)" fill="#3f3d56"/>
      <path id="Path_25" data-name="Path 25" d="M975.214,633.33a11.595,11.595,0,1,1,11.595-11.595A11.595,11.595,0,0,1,975.214,633.33Zm0-21.406a9.811,9.811,0,1,0,9.811,9.811,9.811,9.811,0,0,0-9.811-9.811Z" transform="translate(-286.451 -173.643)" fill="#3f3d56"/>
      <path id="Path_26" data-name="Path 26" d="M622.8,405.229l-32.083-31.4H445.144V283.742H636.012v90.082h-13.52ZM446.928,372.041H591.446l29.53,28.905-.285-28.905h13.537V285.526h-187.3Z" transform="translate(-230.407 -138.361)" fill="#333745"/>
      <path id="Path_27" data-name="Path 27" d="M255.354,242.228l.31-31.4h-13.52V120.742H433.012v90.082H287.438ZM243.928,209.04h13.537l-.284,28.9,29.53-28.9H431.228V122.525h-187.3Z" transform="translate(-208.463 -120.742)" fill="#333745"/>
      <rect id="Rectangle_5" data-name="Rectangle 5" width="114.164" height="1.784" transform="translate(68.465 28.541)" fill="#333745"/>
      <path id="Path_28" data-name="Path 28" d="M491.926,353.518l-15.864-15.864a11.663,11.663,0,0,1,15.864-17.081,11.664,11.664,0,0,1,15.864,17.081Zm-7.616-33.986a9.875,9.875,0,0,0-6.986,16.861l14.6,14.6,14.6-14.6a9.88,9.88,0,1,0-13.972-13.972l-.631.631-.631-.631a9.85,9.85,0,0,0-6.986-2.889Z" transform="translate(-233.379 -142.036)" fill="#333745"/>
      <path id="Path_29" data-name="Path 29" d="M555.724,328.663a2.606,2.606,0,1,0-3.686,3.686l3.686,3.686,3.686-3.686a2.606,2.606,0,1,0-3.686-3.686Z" transform="translate(-241.879 -143.134)" fill="#333745"/>
      <path id="Path_30" data-name="Path 30" d="M538.724,328.663a2.606,2.606,0,1,0-3.686,3.686l3.686,3.686,3.686-3.686a2.606,2.606,0,1,0-3.686-3.686Z" transform="translate(-240.041 -143.134)" fill="#333745"/>
      <path id="Path_31" data-name="Path 31" d="M545.766,354.986a19.622,19.622,0,1,1,19.622-19.622,19.622,19.622,0,0,1-19.622,19.622Zm0-37.46A17.838,17.838,0,1,0,563.6,335.364a17.838,17.838,0,0,0-17.838-17.838Z" transform="translate(-239.162 -141.82)" fill="#333745"/>
      <path id="Path_32" data-name="Path 32" d="M599.766,354.986a19.622,19.622,0,1,1,19.622-19.622,19.622,19.622,0,0,1-19.622,19.622Zm0-37.46A17.838,17.838,0,1,0,617.6,335.364a17.838,17.838,0,0,0-17.838-17.838Z" transform="translate(-244.999 -141.82)" fill="#333745"/>
      <circle id="Ellipse_5" data-name="Ellipse 5" cx="4.46" cy="4.46" r="4.46" transform="translate(358.335 182.841)" fill="#333745"/>
      <circle id="Ellipse_6" data-name="Ellipse 6" cx="4.46" cy="4.46" r="4.46" transform="translate(343.172 182.841)" fill="#333745"/>
      <path id="Path_33" data-name="Path 33" d="M595.892,341.742c-1.82,12.589,12.621,15.142,11.176,0C607.153,341.73,596.474,341.749,595.892,341.742Z" transform="translate(-246.684 -144.63)" fill="#333745"/>
      <path id="Path_34" data-name="Path 34" d="M540.439,344.671c4.078,5.483,11.13,5.975,14.9,0Z" transform="translate(-240.707 -144.947)" fill="#333745"/>
      <rect id="Rectangle_6" data-name="Rectangle 6" width="114.164" height="1.784" transform="translate(68.677 42.15)" fill="#333745"/>
      <rect id="Rectangle_7" data-name="Rectangle 7" width="114.164" height="1.784" transform="translate(68.677 54.637)" fill="#333745"/>
      <rect id="Rectangle_8" data-name="Rectangle 8" width="95.434" height="1.784" transform="translate(0 120.637)" fill="#3f3d56"/>
      <rect id="Rectangle_9" data-name="Rectangle 9" width="95.434" height="1.784" transform="translate(340.708 266.018)" fill="#3f3d56"/>
    </g>
  </g>
</svg>
